<svg width="100" height="100" viewBox="0 0 100 100" fill="none" xmlns="http://www.w3.org/2000/svg">
<g clip-path="url(#clip0)">
<path d="M91.2811 12.131C86.2882 6.96084 79.3884 4.46358 71.8538 5.09678C64.8727 5.68448 57.9058 8.82256 52.238 13.9314C51.6095 14.4956 51.1075 14.9718 50.704 15.3548C50.4556 15.5905 50.2024 15.8306 50.0001 16.0118C49.7948 15.8278 49.5368 15.5827 49.2839 15.3423C48.8845 14.9626 48.3874 14.4901 47.7685 13.9331C42.0958 8.82237 35.1272 5.68428 28.1464 5.09659C20.6116 4.46319 13.7134 6.96065 8.72314 12.131C-2.90771 24.1786 -2.90771 43.7813 8.72314 55.829C8.73037 55.8366 8.73779 55.8439 8.74521 55.8513L46.1366 92.9155C46.5323 93.3083 47.9649 94.7841 49.0483 95.1386C50.2552 95.5333 51.3298 95.1552 52.4083 94.1909C52.744 93.8909 53.7304 93.0526 53.8683 92.9155L75.472 71.498C76.0462 70.9286 76.0503 70.0013 75.4809 69.4271C74.9116 68.8526 73.9843 68.8483 73.41 69.4181L66.5688 76.2003C65.5247 71.2919 60.9587 70.0706 57.512 69.1505C57.2743 69.087 57.0378 69.0241 56.8013 68.9597C56.6731 68.9249 56.2487 68.7044 55.5251 67.3821C58.6175 65.2099 60.6786 61.6349 60.6786 58.0886C60.6786 58.0792 60.6616 56.3974 60.6616 56.3231C60.6616 52.7606 59.5192 49.7319 57.3583 47.5646C57.3263 47.5323 57.2925 47.5022 57.2601 47.4706C58.2819 47.1122 59.364 46.8157 60.4327 46.53C62.5292 49.2179 65.7224 50.7937 69.1729 50.7937C72.6255 50.7937 75.8169 49.2181 77.9089 46.5304C83.47 48.0237 86.8397 49.3776 86.8397 54.8575V56.1091L78.746 64.1331C78.1718 64.7026 78.1677 65.6298 78.737 66.204C79.3065 66.7782 80.2339 66.7821 80.8079 66.213L91.2589 55.8522C91.2665 55.8446 91.2741 55.837 91.2817 55.8292C102.906 43.7815 102.906 24.1786 91.2811 12.131ZM33.4302 76.1991L15.2897 58.2204L13.1593 56.106V54.8573C13.1593 49.3806 16.5292 48.0245 22.0913 46.5298C24.1878 49.2177 27.381 50.7935 30.8315 50.7935C34.2788 50.7935 37.4698 49.2179 39.5659 46.53C40.631 46.8148 41.7089 47.1103 42.728 47.4667C42.6942 47.4997 42.6593 47.5308 42.6259 47.5644C40.4634 49.7323 39.3202 52.761 39.3202 56.3231V58.0886C39.3202 61.6349 41.3813 65.2099 44.4737 67.3821C43.7499 68.7044 43.3253 68.9251 43.195 68.9604C42.961 69.0243 42.7245 69.0874 42.4868 69.1507C39.0403 70.0706 34.4749 71.2917 33.4302 76.1991ZM26.1698 43.4681C26.7142 43.8122 27.2856 44.1122 27.8808 44.3569C28.9438 44.7946 29.9089 45.0132 30.8741 45.0132C31.839 45.0132 32.8042 44.7944 33.8669 44.3571C34.4407 44.1212 34.9925 43.8341 35.5192 43.5058C35.8153 44.113 36.214 44.7597 36.7792 45.2868C35.2503 46.922 33.1171 47.8646 30.8315 47.8646C28.5431 47.8646 26.4081 46.9218 24.8784 45.2866C25.4554 44.7507 25.8649 44.0896 26.1698 43.4681ZM23.4575 33.6716V31.5599H27.2329C29.7841 31.5599 32.0054 30.9677 33.5565 29.9028C35.1841 31.2112 36.2157 31.4755 38.2759 31.5388L38.2962 33.6714C38.2962 36.9198 35.9132 40.3489 32.7528 41.6483C31.3481 42.2265 30.4001 42.2263 28.995 41.6481C25.8382 40.3505 23.4575 36.9212 23.4575 33.6716ZM57.0128 72.0493C61.2794 73.2013 63.8606 74.2647 63.8606 78.414V78.8851C63.8606 78.8851 50.2899 92.0312 50.0005 92.1521C49.7095 92.0319 36.138 78.8829 36.138 78.8829V78.414C36.138 74.2649 38.719 73.2015 42.986 72.0493C44.7218 74.1974 47.2737 75.4532 50.0022 75.4532C52.7278 75.4532 55.2776 74.1974 57.0128 72.0493ZM45.6946 70.6958C46.2282 70.1448 46.6769 69.4595 47.0589 68.7597C48.0983 69.1556 49.0493 69.3558 49.9995 69.3558C50.9495 69.3558 51.9007 69.1558 52.9399 68.7599C53.322 69.4599 53.7708 70.1454 54.3042 70.6964C53.1565 71.87 51.647 72.5247 50.0022 72.5247C48.3548 72.5245 46.8431 71.8698 45.6946 70.6958ZM57.7497 58.1021C57.7429 61.311 55.269 64.6997 51.9899 65.9888C50.5015 66.5739 49.4972 66.5739 48.0085 65.9886C44.7296 64.6997 42.256 61.3108 42.2489 58.1019L42.2622 57.4099C43.1548 57.23 44.3339 57.1452 45.4839 57.0626C47.9161 56.8878 50.4311 56.7069 52.0233 55.6146C52.1317 55.5396 52.3188 55.4101 52.4622 55.3212C52.477 55.3312 52.6798 55.4784 52.7827 55.5562C53.6294 56.1944 55.2472 57.4144 57.7421 57.7204L57.7497 58.1021ZM57.6339 54.7372C56.1815 54.445 54.8571 53.5868 54.1936 52.9575C52.4698 51.7448 51.3474 52.521 50.3643 53.2015C49.4284 53.8409 47.2192 54.0003 45.27 54.1407C44.2634 54.2132 43.2858 54.2835 42.3944 54.4151C43.1452 49.6997 46.6765 47.473 49.9909 47.4099C53.3802 47.4741 56.9956 49.8003 57.6339 54.7372ZM69.1729 47.8646C66.8845 47.8646 64.7495 46.922 63.2198 45.2868C63.8218 44.7237 64.2302 44.0251 64.5227 43.3868C64.894 43.5751 65.2733 43.7487 65.6618 43.9021C66.9075 44.3905 68.0382 44.6349 69.1694 44.6349C70.3009 44.6349 71.4327 44.3901 72.6798 43.9013C73.0688 43.7481 73.4485 43.5745 73.8202 43.386C74.112 44.0247 74.5198 44.7241 75.1222 45.2878C73.5964 46.9224 71.4628 47.8646 69.1729 47.8646ZM71.6089 41.1753C69.8085 41.8814 68.5323 41.8815 66.7339 41.1765C62.7792 39.6167 59.7962 35.5214 59.7903 31.6464L59.7999 31.0608C62.1599 30.8296 63.3231 29.998 63.9741 29.386C66.7143 30.9552 70.7901 32.0146 74.6827 32.0146C76.0157 32.0146 77.3263 31.8884 78.5554 31.6177L78.5559 31.6483C78.5489 35.5235 75.5638 39.6177 71.6089 41.1753ZM59.8892 28.1112C60.07 25.3939 60.6923 23.4499 63.4036 22.7417C63.7058 22.6628 63.9749 22.4892 64.1714 22.2466C66.0954 19.871 69.4856 19.0175 72.6073 20.123C76.0366 21.3374 78.1888 24.4753 78.4952 28.6212C74.1456 29.8399 68.0565 28.598 64.9243 26.5349C64.5657 26.2991 64.2063 26.1815 63.8477 26.1815C63.2946 26.1815 62.7431 26.4618 62.1989 27.0214C61.8386 27.3919 61.3356 27.9095 59.8892 28.1112ZM89.677 53.2597C89.3489 50.3962 88.1026 48.2089 85.8862 46.6095C83.7243 45.0495 81.0511 44.3364 78.4657 43.6468C78.1651 43.5665 77.8663 43.4868 77.5718 43.4065C76.9755 43.2435 76.5874 42.4573 76.3143 41.7663C79.4474 39.228 81.4847 35.4153 81.4847 31.6345C81.4847 31.6251 81.4847 31.6157 81.4845 31.6064C81.4845 31.6064 81.462 29.7122 81.462 29.6595C81.462 22.6491 77.3932 18.7101 73.5854 17.3616C69.4557 15.8989 64.9479 16.9776 62.2056 20.0392C57.1149 21.6409 56.9774 26.5183 56.8999 29.478C56.8987 29.4985 56.8618 31.6103 56.8618 31.6103C56.8616 31.6183 56.8616 31.6263 56.8616 31.6343C56.8616 35.4147 58.8979 39.2276 62.0306 41.7665C61.756 42.4579 61.3663 43.2427 60.7698 43.406C60.471 43.4876 60.1688 43.5683 59.8649 43.6495C58.0186 44.1425 56.1173 44.6507 54.3847 45.481C53.1243 44.8933 51.7442 44.553 50.3083 44.4919C49.9042 43.5454 49.4343 42.8423 49.0067 42.203C48.0767 40.8124 47.1976 39.4978 47.0796 35.2858C48.3495 28.5513 46.1544 24.0778 44.0786 21.5048C41.1431 17.8661 36.4347 15.6353 31.4829 15.5368C28.2647 15.4737 25.128 16.2743 22.4171 17.8517C21.7181 18.2583 21.4812 19.1548 21.8878 19.8538C22.2944 20.553 23.1909 20.7898 23.8899 20.3831C26.1046 19.0944 28.7788 18.414 31.4253 18.4651C35.5222 18.5466 39.4003 20.3704 41.7991 23.344C44.2388 26.3681 45.0603 30.3587 44.1745 34.8839C44.1542 34.9876 44.1452 35.0933 44.1476 35.1991C44.2679 40.386 45.4919 42.2163 46.572 43.8313C46.8083 44.1849 47.0292 44.5181 47.2327 44.8763C46.6729 45.0321 46.1292 45.2319 45.6062 45.4757C43.8745 44.6493 41.9759 44.1413 40.1317 43.6485C39.8288 43.5677 39.5276 43.4872 39.2306 43.406C38.5864 43.2298 38.1661 42.3241 37.8737 41.5813C39.9345 39.4212 41.2251 36.5312 41.2249 33.6569L41.1909 30.0808C41.1833 29.2815 40.536 28.6358 39.7366 28.6304L39.6159 28.6296C36.5608 28.6091 36.4415 28.6081 34.5421 26.8874C34.2528 26.6255 33.8687 26.4886 33.4812 26.5105C33.0913 26.5312 32.7261 26.7067 32.4661 26.998C31.5679 28.0048 29.5626 28.6304 27.2329 28.6304H21.9931C21.1843 28.6304 20.5286 29.2858 20.5286 30.0948V33.671C20.5286 36.5126 21.7964 39.3749 23.8251 41.5276C23.528 42.2714 23.0794 43.2276 22.4286 43.4056C22.1354 43.4855 21.8394 43.5644 21.5415 43.6438C19.0081 44.32 16.3915 45.0208 14.2522 46.5151C14.5979 45.3366 15.0841 44.6077 15.6077 43.8239C16.6866 42.2095 17.9095 40.3794 18.0306 35.1991C18.0331 35.0929 18.0239 34.9866 18.0034 34.8823C17.2632 31.1183 17.7229 27.6601 19.3329 24.8819C19.7384 24.1821 19.5001 23.2862 18.8003 22.8806C18.1007 22.4755 17.2046 22.7138 16.7991 23.4134C14.8515 26.7741 14.2644 30.8761 15.0985 35.2862C14.9798 39.4919 14.1017 40.8064 13.1726 42.197C12.0284 43.9093 10.8466 45.6817 10.8093 51.0263C10.5751 51.7175 10.413 52.4591 10.3208 53.2523C0.28623 42.2886 0.455371 24.912 10.8304 14.1649C20.7452 3.89268 36.2519 7.49952 45.8087 16.1095C46.3985 16.6405 46.8796 17.0978 47.2663 17.4651C48.4073 18.5495 49.0401 19.1507 49.9938 19.1507H50.0106C50.9581 19.1507 51.5866 18.5544 52.72 17.479C53.1102 17.1087 53.5962 16.6478 54.1968 16.1089C63.7485 7.49893 79.2536 3.8919 89.1739 14.1649C99.5462 24.9142 99.7134 42.2956 89.677 53.2597Z" fill="#F8C25C"/>
</g>
<defs>
<clipPath id="clip0">
<rect width="100" height="100" fill="white"/>
</clipPath>
</defs>
</svg>
