<svg width="147" height="19" viewBox="0 0 147 19" fill="none" xmlns="http://www.w3.org/2000/svg">
<path d="M14.4676 13.0781L16.7645 0.9375H20.2684L16.4832 18H12.9442L10.1668 6.58594L7.38947 18H3.8504L0.0652466 0.9375H3.56915L5.87775 13.0547L8.69025 0.9375H11.6668L14.4676 13.0781ZM31.2957 14.4844H25.1317L23.9598 18H20.2215L26.5731 0.9375H29.8309L36.2176 18H32.4793L31.2957 14.4844ZM26.0809 11.6367H30.3465L28.202 5.25L26.0809 11.6367ZM50.6317 13.0781L52.9285 0.9375H56.4324L52.6473 18H49.1082L46.3309 6.58594L43.5535 18H40.0145L36.2293 0.9375H39.7332L42.0418 13.0547L44.8543 0.9375H47.8309L50.6317 13.0781ZM73.1668 13.5234C73.1668 12.8594 72.9324 12.3516 72.4637 12C71.9949 11.6406 71.1512 11.2656 69.9324 10.875C68.7137 10.4766 67.7488 10.0859 67.0379 9.70312C65.1004 8.65625 64.1317 7.24609 64.1317 5.47266C64.1317 4.55078 64.3895 3.73047 64.9051 3.01172C65.4285 2.28516 66.1746 1.71875 67.1434 1.3125C68.1199 0.90625 69.2137 0.703125 70.4246 0.703125C71.6434 0.703125 72.7293 0.925781 73.6824 1.37109C74.6356 1.80859 75.3738 2.42969 75.8973 3.23438C76.4285 4.03906 76.6942 4.95312 76.6942 5.97656H73.1785C73.1785 5.19531 72.9324 4.58984 72.4402 4.16016C71.9481 3.72266 71.2567 3.50391 70.366 3.50391C69.5067 3.50391 68.8387 3.6875 68.3621 4.05469C67.8856 4.41406 67.6473 4.89062 67.6473 5.48438C67.6473 6.03906 67.9246 6.50391 68.4793 6.87891C69.0418 7.25391 69.866 7.60547 70.952 7.93359C72.952 8.53516 74.409 9.28125 75.3231 10.1719C76.2371 11.0625 76.6942 12.1719 76.6942 13.5C76.6942 14.9766 76.1356 16.1367 75.0184 16.9805C73.9012 17.8164 72.3973 18.2344 70.5067 18.2344C69.1942 18.2344 67.9988 17.9961 66.9207 17.5195C65.8426 17.0352 65.0184 16.375 64.4481 15.5391C63.8856 14.7031 63.6043 13.7344 63.6043 12.6328H67.1317C67.1317 14.5156 68.2567 15.457 70.5067 15.457C71.3426 15.457 71.9949 15.2891 72.4637 14.9531C72.9324 14.6094 73.1668 14.1328 73.1668 13.5234ZM91.9285 3.78516H86.702V18H83.1863V3.78516H78.0301V0.9375H91.9285V3.78516ZM106.858 0.9375V12.1758C106.858 14.043 106.272 15.5195 105.1 16.6055C103.936 17.6914 102.343 18.2344 100.319 18.2344C98.327 18.2344 96.7449 17.707 95.5731 16.6523C94.4012 15.5977 93.8035 14.1484 93.7801 12.3047V0.9375H97.2957V12.1992C97.2957 13.3164 97.5613 14.1328 98.0926 14.6484C98.6317 15.1562 99.3738 15.4102 100.319 15.4102C102.296 15.4102 103.3 14.3711 103.331 12.293V0.9375H106.858ZM109.741 18V0.9375H114.991C116.491 0.9375 117.831 1.27734 119.011 1.95703C120.198 2.62891 121.124 3.58984 121.788 4.83984C122.452 6.08203 122.784 7.49609 122.784 9.08203V9.86719C122.784 11.4531 122.456 12.8633 121.8 14.0977C121.151 15.332 120.233 16.2891 119.046 16.9688C117.858 17.6484 116.518 17.9922 115.026 18H109.741ZM113.257 3.78516V15.1758H114.956C116.331 15.1758 117.382 14.7266 118.108 13.8281C118.835 12.9297 119.206 11.6445 119.221 9.97266V9.07031C119.221 7.33594 118.862 6.02344 118.143 5.13281C117.425 4.23438 116.374 3.78516 114.991 3.78516H113.257ZM129.089 18H125.573V0.9375H129.089V18ZM146.374 9.85547C146.374 11.5352 146.077 13.0078 145.483 14.2734C144.889 15.5391 144.038 16.5156 142.929 17.2031C141.827 17.8906 140.561 18.2344 139.132 18.2344C137.718 18.2344 136.456 17.8945 135.346 17.2148C134.237 16.5352 133.378 15.5664 132.768 14.3086C132.159 13.043 131.85 11.5898 131.843 9.94922V9.10547C131.843 7.42578 132.143 5.94922 132.745 4.67578C133.354 3.39453 134.21 2.41406 135.311 1.73438C136.421 1.04687 137.686 0.703125 139.108 0.703125C140.53 0.703125 141.792 1.04687 142.893 1.73438C144.003 2.41406 144.858 3.39453 145.46 4.67578C146.069 5.94922 146.374 7.42188 146.374 9.09375V9.85547ZM142.811 9.08203C142.811 7.29297 142.491 5.93359 141.85 5.00391C141.21 4.07422 140.296 3.60938 139.108 3.60938C137.929 3.60938 137.018 4.07031 136.378 4.99219C135.737 5.90625 135.413 7.25 135.405 9.02344V9.85547C135.405 11.5977 135.725 12.9492 136.366 13.9102C137.007 14.8711 137.929 15.3516 139.132 15.3516C140.311 15.3516 141.218 14.8906 141.85 13.9688C142.483 13.0391 142.804 11.6875 142.811 9.91406V9.08203Z" fill="#F8C25C"/>
</svg>
