<svg width="16" height="20" viewBox="0 0 16 20" fill="none" xmlns="http://www.w3.org/2000/svg">
<path d="M15.584 7C15.584 6.08075 15.3948 5.1705 15.0272 4.32122C14.6596 3.47194 14.1207 2.70026 13.4415 2.05025C12.7622 1.40024 11.9558 0.884626 11.0683 0.532843C10.1808 0.18106 9.22961 0 8.26899 0C7.30837 0 6.35716 0.18106 5.46966 0.532843C4.58216 0.884626 3.77576 1.40024 3.0965 2.05025C2.41724 2.70026 1.87842 3.47194 1.5108 4.32122C1.14319 5.1705 0.953979 6.08075 0.953979 7C0.953979 8.387 1.38243 9.677 2.10871 10.765H2.10035C4.56655 14.46 8.26899 20 8.26899 20L14.4376 10.765H14.4303C15.1832 9.64137 15.5835 8.33474 15.584 7ZM8.26899 10C7.43754 10 6.64014 9.68393 6.05221 9.12132C5.46428 8.55871 5.13399 7.79565 5.13399 7C5.13399 6.20435 5.46428 5.44129 6.05221 4.87868C6.64014 4.31607 7.43754 4 8.26899 4C9.10045 4 9.89785 4.31607 10.4858 4.87868C11.0737 5.44129 11.404 6.20435 11.404 7C11.404 7.79565 11.0737 8.55871 10.4858 9.12132C9.89785 9.68393 9.10045 10 8.26899 10Z" fill="white"/>
</svg>
