<svg width="40" height="40" viewBox="0 0 40 40" fill="none" xmlns="http://www.w3.org/2000/svg">
<circle cx="20" cy="20" r="20" fill="#F8C25C"/>
<path d="M28 20.0496C28 15.6027 24.4165 12 20 12C15.5805 12 12 15.6027 12 20.0496C12 24.0663 14.9245 27.3968 18.75 28V22.3769H16.7185V20.0501H18.75V18.2756C18.75 16.2587 19.9425 15.1449 21.7705 15.1449C22.646 15.1449 23.5625 15.3018 23.5625 15.3018V17.2825H22.552C21.56 17.2825 21.25 17.9038 21.25 18.5403V20.0496H23.4685L23.112 22.3764H21.25V27.9995C25.0725 27.3963 28 24.0663 28 20.0496Z" fill="#242121"/>
</svg>
