<svg width="16" height="22" viewBox="0 0 16 22" fill="none" xmlns="http://www.w3.org/2000/svg">
<path d="M12.449 0H4.08898C2.35428 0 0.953979 1.34 0.953979 3V19C0.953979 20.66 2.35428 22 4.08898 22H12.449C14.1837 22 15.584 20.66 15.584 19V3C15.584 1.34 14.1837 0 12.449 0ZM9.83649 20H6.70149C6.40889 20 6.17899 19.78 6.17899 19.5C6.17899 19.22 6.40889 19 6.70149 19H9.83649C10.1291 19 10.359 19.22 10.359 19.5C10.359 19.78 10.1291 20 9.83649 20ZM13.494 17H3.04398V3H13.494V17Z" fill="white"/>
</svg>
