<svg width="40" height="40" viewBox="0 0 40 40" fill="none" xmlns="http://www.w3.org/2000/svg">
<circle cx="20" cy="20" r="20" fill="#F8C25C"/>
<path d="M26.8034 15.6999C24.41 11.9999 19.5235 10.8999 15.7339 13.1999C12.0441 15.4999 10.8474 20.4999 13.2408 24.2L13.4402 24.5L12.6424 27.5L15.6342 26.7L15.9334 26.9C17.2298 27.6 18.626 28 20.0221 28C21.518 28 23.0139 27.6 24.3103 26.8C28.0001 24.4 29.0971 19.4999 26.8034 15.6999ZM24.7092 23.4C24.3103 24 23.8117 24.4 23.1136 24.5C22.7147 24.5 22.2161 24.7 20.2216 23.9C18.5262 23.1 17.1301 21.8 16.1328 20.2999C15.5345 19.5999 15.2353 18.6999 15.1356 17.7999C15.1356 16.9999 15.4347 16.2999 15.9334 15.7999C16.1328 15.5999 16.3323 15.4999 16.5317 15.4999H17.0304C17.2298 15.4999 17.4293 15.4999 17.529 15.8999C17.7284 16.3999 18.2271 17.5999 18.2271 17.6999C18.3268 17.7999 18.3268 17.9999 18.2271 18.0999C18.3268 18.2999 18.2271 18.4999 18.1273 18.5999C18.0276 18.6999 17.9279 18.8999 17.8282 18.9999C17.6287 19.0999 17.529 19.2999 17.6287 19.4999C18.0276 20.0999 18.5262 20.6999 19.0249 21.1999C19.6232 21.7 20.2216 22.1 20.9196 22.4C21.1191 22.5 21.3185 22.5 21.4183 22.3C21.518 22.1 22.0166 21.6 22.2161 21.3999C22.4155 21.1999 22.5152 21.1999 22.7147 21.2999L24.3103 22.1C24.5097 22.2 24.7092 22.3 24.8089 22.4C24.9086 22.7 24.9086 23.1 24.7092 23.4Z" fill="#242121"/>
</svg>
