<svg width="17" height="15" viewBox="0 0 17 15" fill="none" xmlns="http://www.w3.org/2000/svg">
<path d="M16.6688 7.5C16.6688 3.358 13.1597 0 8.83131 0C4.61498 0 1.17743 3.1865 1.00187 7.18C0.999783 7.229 0.999261 7.27875 0.998216 7.328C0.996909 7.3855 0.993774 7.4425 0.993774 7.5V7.52525C0.993774 11.6535 4.5029 15 8.83131 15C13.1597 15 16.6688 11.6535 16.6688 7.52525L16.6683 7.513L16.6688 7.5ZM10.3962 14.3378C10.259 14.2665 10.1274 14.1498 10.0738 13.9908C9.97689 13.7028 10.0519 13.4792 10.1632 13.2192C10.252 13.011 10.1326 12.7705 10.1916 12.5525C10.3069 12.1283 10.4458 11.6685 10.403 11.2128C10.3763 10.933 10.3116 10.9202 10.0952 10.7587C9.86717 10.5875 9.86717 10.3453 9.7146 10.1287C9.5764 9.932 9.94842 9.1845 9.8447 9.139C9.72844 9.08775 9.46406 9.15475 9.38046 9.0485C9.29059 8.934 9.22789 8.79875 9.10431 8.71C9.02463 8.65275 8.67221 8.46125 8.57816 8.47475C8.10451 8.5425 7.59141 8.1005 7.28914 7.81225C7.08092 7.6145 6.99419 7.39275 6.84162 7.164C6.71256 6.97025 6.51714 6.9535 6.42127 6.71325C6.32068 6.46225 6.38051 6.14075 6.34994 5.87675C6.31677 5.593 6.16942 5.5025 5.98524 5.2855C5.59127 4.81975 5.44628 4.12475 4.69884 4.12475C4.29729 4.12475 4.32577 4.96175 4.00234 4.8495C3.63659 4.72275 3.07072 5.32225 3.07882 5.2415C3.12166 4.823 3.57076 4.6195 3.61465 4.49475C3.75807 4.08525 2.9738 4.18325 3.07438 3.84175C3.12349 3.67375 3.62248 3.5515 3.51929 3.45125C3.4882 3.42075 3.10651 3.1645 3.12532 3.15175C3.19612 3.10425 3.50388 3.25475 3.43699 3.05925C3.41453 2.99425 3.37821 2.9345 3.34373 2.87425C3.50235 2.70188 3.66975 2.5371 3.84533 2.3805C4.11024 2.35975 4.38507 2.3755 4.48461 2.394C5.11579 2.513 5.33525 2.81875 5.96643 2.5925C6.27 2.484 7.38894 2.67225 7.54935 2.97675C7.63661 3.14325 7.9616 2.876 8.08831 2.858C8.22416 2.8385 8.53113 3.03875 8.62466 2.916C8.87102 2.59325 8.46686 2.45925 8.94417 2.70775C9.2642 2.8745 9.88964 2.14125 9.69161 3.003C9.5487 3.62425 9.02359 3.638 8.6385 4.04275C8.25943 4.44125 9.38856 4.54975 9.41755 4.90975C9.50115 5.94625 10.0788 4.82525 9.92412 4.45675C9.62499 3.743 10.2645 3.939 10.5221 4.3925C10.665 4.64425 10.7737 4.43225 10.9487 4.3445C11.0906 4.27375 11.1285 4.657 11.1591 4.72375C11.2596 4.9455 11.5901 5.01175 11.5342 5.29725C11.472 5.612 11.2382 5.5175 11.0096 5.57075C10.7544 5.63 11.0509 5.8355 11.0138 5.9105C10.9736 5.9925 10.6658 6.0265 10.5838 6.073C10.3424 6.209 10.49 6.47425 10.3011 6.61675C10.1715 6.71475 10.0409 6.651 10.0158 6.8345C9.9863 7.05075 9.56986 7.12025 9.62394 7.327C9.63883 7.38375 9.75875 7.80775 9.68325 7.83025C9.6485 7.841 9.37393 7.4615 9.29895 7.4235C9.15056 7.34825 8.47601 7.40975 8.38927 7.837C8.3331 8.11325 8.79761 8.5495 8.91595 8.169C9.06251 7.70075 9.13227 8.44175 9.097 8.47075C9.16701 8.52925 9.57666 8.3745 9.45517 8.64575C9.40371 8.7605 9.5056 9.05975 9.68743 8.9675C9.76345 8.929 9.95939 9.045 9.99361 8.98275C10.0428 8.91105 10.1093 8.85171 10.1875 8.80975C10.3706 8.70725 10.6447 8.8035 10.8453 8.81475C10.9678 8.8215 11.9721 9.34575 11.9776 9.451C11.9995 9.84475 12.7587 9.7935 12.8752 9.93425C13.1885 10.3158 13.0921 10.122 12.8635 10.6108C12.7482 10.8568 12.8486 11.1585 12.5695 11.3368C12.4353 11.4222 12.2715 11.3795 12.1521 11.5005C12.0444 11.6097 12.0868 11.7402 12.0214 11.8665C11.9428 12.0168 10.886 12.9255 10.8163 13.1453C10.7815 13.2555 10.4662 13.3515 10.7322 13.4572C10.8868 13.5007 10.3897 13.9505 10.6287 14.1368C10.687 14.182 10.7251 14.2203 10.7539 14.2545C10.6345 14.285 10.5161 14.3128 10.3962 14.3378ZM9.77024 0.55925C9.76006 0.5955 9.77547 0.63825 9.84104 0.68C9.98891 0.77375 9.79872 0.982 9.59468 0.84775C9.39117 0.7135 8.93346 0.908 8.96507 1.00875C8.99616 1.1095 9.13749 1.1495 9.3559 1.06925C9.57378 0.98875 9.66365 1.08125 9.70023 1.17675C9.72531 1.2415 9.70023 1.2775 9.69317 1.36475C9.68664 1.452 9.43297 1.3915 9.22214 1.40525C9.01079 1.41875 8.78585 1.36475 8.79238 1.2505C8.79943 1.1365 8.56744 0.92825 8.42898 0.84125C8.29078 0.75425 8.48959 0.56625 8.67299 0.707C8.8556 0.848 8.86292 0.68025 9.07401 0.62675C9.19392 0.59625 9.14585 0.5505 9.1051 0.507C9.32977 0.5145 9.55132 0.5325 9.77024 0.55925ZM10.6891 2.7765C10.8471 2.8175 11.1217 3.00875 11.1217 3.09925C11.1217 3.19 10.9971 3.3035 10.942 3.2905C10.5441 3.19775 10.2086 2.822 10.0239 2.61625C9.70153 2.2575 9.72191 2.565 9.21117 2.40975C9.08054 2.36975 8.87337 1.982 9.01053 1.79075C9.14768 1.5995 9.306 1.56925 9.43245 1.62C9.55889 1.67 9.9283 1.45875 10.0132 1.7105C10.0973 1.96225 10.3296 2.2835 10.5409 2.3695C10.7525 2.455 10.5305 2.7355 10.6891 2.7765ZM10.8158 3.94475C10.879 4.0655 10.4356 3.80375 10.3301 3.683C10.2251 3.5625 10.0662 3.29025 10.1935 3.1695C10.3199 3.049 10.6036 3.42075 10.7528 3.502C11.0478 3.66325 10.7525 3.82425 10.8158 3.94475ZM8.57058 2.116C8.60115 2.07575 8.66594 2.1765 8.72367 2.27725C8.78141 2.378 8.70173 2.52 8.57058 2.4985C8.43943 2.4775 8.49717 2.2145 8.57058 2.116ZM8.57058 1.103C8.57058 1.103 8.69415 1.3915 8.57058 1.3445C8.44701 1.2975 8.441 1.17675 8.57058 1.103ZM8.59566 2.0155C8.56039 1.93525 8.55229 1.6055 8.63798 1.5055C8.76443 1.358 8.96873 1.6465 8.83131 1.7605C8.69415 1.87475 8.63067 2.09625 8.59566 2.0155ZM7.00804 2.36925C6.7784 2.3535 6.77343 2.1635 6.74156 2.06275C6.70969 1.962 6.5195 2.254 6.32722 2.06275C6.13493 1.8715 6.37215 1.62 6.32983 1.46875C6.28751 1.31775 6.78336 1.46875 6.85755 1.46875C6.93175 1.46875 7.13213 1.78075 7.18464 1.7755C7.23768 1.7705 7.52244 2.02225 7.52244 1.9215C7.52244 1.821 7.56581 1.6495 7.7654 1.6295C8.07159 1.59925 7.79701 1.95175 7.7863 2.089C7.77611 2.22625 8.01908 2.465 8.10816 2.56575C8.19803 2.6665 7.88166 2.73725 7.82863 2.6765C7.77611 2.616 7.6387 2.6765 7.52244 2.757C7.4067 2.8375 7.08981 2.64625 6.9422 2.58575C6.79433 2.5255 7.23768 2.38475 7.00804 2.36925ZM7.82863 0.78075C8.03266 0.848 8.14866 0.90825 8.24898 0.78075C8.3459 0.65775 8.41984 1.049 8.34956 1.15625C8.27902 1.264 8.14552 1.23725 8.1241 1.15625C8.1032 1.07625 7.62459 0.7135 7.82863 0.78075ZM8.1241 1.9955C8.05408 1.908 8.04703 1.8075 8.1241 1.73375C8.20169 1.66 8.17661 1.57275 8.31455 1.546C8.38248 1.5325 8.39162 1.633 8.39162 1.727C8.39162 1.821 8.47627 1.94175 8.39162 2.089C8.30724 2.23625 8.19464 2.0825 8.1241 1.9955ZM8.70016 0.50325C8.69702 0.52175 8.68422 0.53275 8.65209 0.52975C8.62999 0.526164 8.60896 0.518064 8.59043 0.506C8.62727 0.50475 8.66332 0.50375 8.70016 0.50325ZM7.10418 0.7875C7.26589 0.7875 7.24499 0.892 7.37875 0.96725C7.51251 1.04225 7.44197 0.57925 7.53341 0.75375C7.62485 0.928 7.89629 1.16975 7.76566 1.2165C7.65333 1.25725 7.18203 1.43125 7.13971 1.40125C7.09738 1.37125 7.04121 1.24375 6.92835 1.2165C6.81549 1.18975 6.6961 0.93475 6.61851 0.9415C6.58899 0.944 6.58638 0.8955 6.60571 0.831C6.7414 0.789198 6.87835 0.751264 7.0164 0.71725C7.03155 0.75675 7.05454 0.7875 7.10418 0.7875ZM10.636 8.29375C10.4675 8.46025 10.1773 8.17775 9.97689 8.18775C9.77651 8.19775 9.67593 7.9965 9.50194 8.01675C9.32742 8.0365 9.54949 7.805 9.79219 7.92625C10.0344 8.047 10.7734 8.1575 10.636 8.29375ZM14.014 2.56025C13.9649 2.62025 13.909 2.66225 13.8554 2.7065C13.6974 2.8375 13.4019 2.8275 13.3596 2.918C13.3172 3.0085 13.2117 3.29025 12.8423 3.2915C12.4729 3.2925 12.5784 3.82425 12.5468 3.976C12.5152 4.12775 12.4311 4.30725 12.3253 4.17625C12.2197 4.0455 12.1774 4.0955 11.8508 3.713C11.5243 3.3305 11.6497 3.11925 11.7555 3.0085C11.861 2.898 11.9034 2.636 11.7555 2.67625C11.6076 2.7165 11.5232 2.62575 11.5548 2.5005C11.5865 2.37525 11.7448 2.28375 11.5548 2.15C11.3649 2.0165 11.4702 1.53875 11.3226 1.10275C11.1747 0.6665 10.9741 0.97525 10.647 0.992C10.3199 1.00875 10.2669 0.77375 10.4148 0.66625C11.7792 0.954985 13.0284 1.61233 14.014 2.56025Z" fill="white"/>
</svg>
