<svg width="17" height="13" viewBox="0 0 17 13" fill="none" xmlns="http://www.w3.org/2000/svg">
<path d="M15.9175 0.00526699C15.8463 -0.00175566 15.7745 -0.00175566 15.7033 0.00526699H1.07319C0.979425 0.00664956 0.88628 0.0201036 0.796265 0.0452669L8.34642 7.24026L15.9175 0.00526699Z" fill="white"/>
<path d="M16.6907 0.700439L9.08305 7.95043C8.88725 8.13669 8.6224 8.24123 8.34632 8.24123C8.07025 8.24123 7.80539 8.13669 7.6096 7.95043L0.0699003 0.755439C0.0467218 0.83696 0.0344322 0.920962 0.0333252 1.00544V11.0054C0.0333252 11.2706 0.143423 11.525 0.339399 11.7125C0.535375 11.9001 0.801176 12.0054 1.07833 12.0054H15.7084C15.9855 12.0054 16.2513 11.9001 16.4473 11.7125C16.6433 11.525 16.7534 11.2706 16.7534 11.0054V1.00544C16.7492 0.901267 16.7281 0.798357 16.6907 0.700439ZM1.79416 11.0054H1.06788V10.2904L4.86646 6.68544L5.60319 7.39044L1.79416 11.0054ZM15.6979 11.0054H14.9664L11.1574 7.39044L11.8941 6.68544L15.6927 10.2904L15.6979 11.0054Z" fill="white"/>
</svg>
