<svg width="100" height="100" viewBox="0 0 100 100" fill="none" xmlns="http://www.w3.org/2000/svg">
<g clip-path="url(#clip0)">
<path d="M99.6436 31.1737L90.6761 10.5735C90.1571 9.38158 88.9818 8.61127 87.6818 8.61127H12.3186C11.0184 8.61127 9.84312 9.38158 9.32431 10.5735L0.356215 31.1744C-0.300098 32.6825 -0.0349646 34.4657 1.03169 35.7175L47.4966 90.2412C48.1179 90.9704 49.0235 91.3887 49.9817 91.3889H49.9823C50.9401 91.3889 51.8458 90.9708 52.4673 90.2422L68.09 71.9237C68.621 71.3012 68.5468 70.3659 67.924 69.8349C67.3017 69.3038 66.3662 69.3781 65.8352 70.0008L53.5306 84.4286L72.9292 34.5335H96.0831L70.171 64.9165C69.6399 65.539 69.7142 66.4743 70.3369 67.0053C70.9594 67.5364 71.8947 67.4621 72.4258 66.8394L98.9673 35.7179C100.035 34.4661 100.3 32.6823 99.6436 31.1737ZM96.5841 31.5698H74.827L88.4436 12.8696L96.5841 31.5698ZM33.5921 50.8917L46.7934 84.8473L3.91635 34.5333H27.232L31.3017 45.0009C31.5297 45.5872 32.0896 45.9462 32.6831 45.946C32.8615 45.946 33.0432 45.9134 33.2197 45.8449C33.9823 45.5483 34.3602 44.6897 34.0637 43.9269L30.4115 34.5331H69.749L50.0803 85.1233L36.354 49.8177C36.0575 49.0551 35.1987 48.6772 34.4361 48.9737C33.6735 49.2703 33.2955 50.1289 33.5921 50.8917ZM55.6884 11.5748L59.0782 16.616C59.3643 17.0414 59.8323 17.2712 60.3091 17.2712C60.5934 17.2712 60.8808 17.1894 61.1345 17.0189C61.8137 16.5623 61.9939 15.6416 61.5373 14.9624L59.2594 11.5748H85.7204L71.9633 30.4679L65.1184 20.2882C64.6618 19.609 63.7412 19.4286 63.062 19.8853C62.3829 20.3419 62.2025 21.2626 62.6591 21.9418L69.1329 31.5698H31.0277L44.4724 11.5748H55.6884ZM28.1976 30.4679L14.4405 11.5748H40.9014L28.1976 30.4679ZM11.6169 12.7317L25.3338 31.5698H3.41631L11.6169 12.7317Z" fill="#F8C25C"/>
<path d="M22.4906 76.2557C21.7667 75.7948 20.8704 75.7359 20.0923 76.0991L12.427 79.6764C11.2535 80.2238 10.688 81.6003 11.1401 82.8094C12.6003 86.7164 15.9229 88.831 21.016 89.0947C21.0586 89.0969 21.1013 89.0981 21.1438 89.0981C21.7817 89.0981 22.4041 88.8513 22.8683 88.4106C23.3628 87.9409 23.6466 87.2807 23.6466 86.5993V78.3628C23.6467 77.5045 23.2145 76.7168 22.4906 76.2557ZM20.6833 86.1028C15.979 85.7136 14.5862 83.3841 14.0753 82.1776L20.6833 79.0938V86.1028Z" fill="#F8C25C"/>
<path d="M19.411 68.1143C19.5977 67.2766 19.3474 66.4138 18.7411 65.8063L12.7659 59.8185C11.8512 58.9018 10.3647 58.8393 9.38198 59.6762C6.20632 62.3803 5.35046 66.2247 6.83793 71.103C7.03708 71.7564 7.50175 72.306 8.11282 72.6114C8.46212 72.7859 8.84638 72.8742 9.23144 72.8742C9.5189 72.8742 9.80675 72.825 10.0806 72.7258L17.8242 69.9192C18.631 69.6266 19.2243 68.9519 19.411 68.1143ZM9.53747 69.7704C8.30051 65.2152 10.0158 63.1119 10.9763 62.2205L16.1271 67.3821L9.53747 69.7704Z" fill="#F8C25C"/>
<path d="M87.7339 79.6764L80.0683 76.099C79.2907 75.7361 78.3941 75.7946 77.6701 76.2557C76.9462 76.7166 76.5139 77.5043 76.5139 78.3627V86.5993C76.5139 87.2809 76.7976 87.9411 77.2921 88.4105C77.7564 88.8513 78.3787 89.0981 79.0167 89.0981C79.0592 89.0981 79.1018 89.0969 79.1445 89.0947C84.2375 88.8312 87.5604 86.7164 89.0206 82.8094C89.4726 81.6003 88.9074 80.224 87.7339 79.6764ZM79.4776 86.1028V79.0935L86.0856 82.1773C85.5747 83.3841 84.1818 85.7134 79.4776 86.1028Z" fill="#F8C25C"/>
<path d="M90.779 59.6762C89.7961 58.8391 88.3096 58.9017 87.3949 59.8184L81.4199 65.8063C80.8136 66.4138 80.5633 67.2765 80.75 68.1142C80.9367 68.9519 81.53 69.6266 82.337 69.9192L90.0804 72.7256C90.3544 72.825 90.6423 72.8742 90.9297 72.8742C91.3148 72.8742 91.699 72.7858 92.0483 72.6114C92.6592 72.306 93.1239 71.7561 93.3232 71.103C94.8105 66.2247 93.9546 62.3803 90.779 59.6762ZM90.6235 69.7704L84.0339 67.3822L89.1846 62.2206C90.145 63.1119 91.8602 65.2149 90.6235 69.7704Z" fill="#F8C25C"/>
</g>
<defs>
<clipPath id="clip0">
<rect width="100" height="100" fill="white"/>
</clipPath>
</defs>
</svg>
