<svg width="100" height="100" viewBox="0 0 100 100" fill="none" xmlns="http://www.w3.org/2000/svg">
<path d="M90.2871 45.4127C86.6423 40.9112 81.7667 37.5672 76.2547 35.7881L78.2988 33.7438C78.924 33.1229 79.3626 32.3393 79.5651 31.4818C79.7675 30.6243 79.7256 29.7273 79.4441 28.8924C79.1372 27.972 78.6002 27.1454 77.884 26.4909C77.1678 25.8365 76.2962 25.3759 75.352 25.153C74.4078 24.9301 73.4222 24.9522 72.489 25.2172C71.5557 25.4823 70.7057 25.9815 70.0195 26.6674L69.209 27.4779L68.3984 26.6674C67.7123 25.9812 66.8622 25.4818 65.9288 25.2167C64.9954 24.9515 64.0097 24.9293 63.0654 25.1522C62.121 25.3752 61.2493 25.8358 60.533 26.4904C59.8167 27.145 59.2797 27.9718 58.9729 28.8924C58.6914 29.7273 58.6495 30.6243 58.8519 31.4818C59.0543 32.3392 59.4929 33.1229 60.118 33.7438L61.3289 34.9547C60.5244 35.1158 59.7273 35.3094 58.943 35.5357C58.8853 35.5526 58.8287 35.5727 58.7734 35.5961C56.8111 32.0605 54.1477 28.9627 50.9462 26.4925C47.7447 24.0223 44.0726 22.2318 40.1549 21.2305L44.9834 15.0223C45.194 14.7517 45.3096 14.4193 45.3126 14.0764C45.3156 13.7336 45.2058 13.3993 45 13.125L40.3125 6.875C40.167 6.68094 39.9782 6.52344 39.7613 6.41496C39.5443 6.30648 39.3051 6.25 39.0625 6.25H26.5625C26.3199 6.25 26.0807 6.30648 25.8637 6.41496C25.6468 6.52344 25.458 6.68094 25.3125 6.875L20.625 13.125C20.4193 13.3992 20.3095 13.7335 20.3125 14.0762C20.3155 14.419 20.4311 14.7513 20.6416 15.0219L25.4703 21.2305C19.0796 22.8632 13.4143 26.5772 9.36822 31.7865C5.32215 36.9958 3.12557 43.404 3.125 50C3.125 66.3697 16.4428 79.6875 32.8125 79.6875C35.6613 79.6891 38.4954 79.2793 41.2271 78.4709C43.7902 83.1085 47.5514 86.9728 52.1179 89.6605C56.6844 92.3481 61.8888 93.7605 67.1875 93.75C83.5572 93.75 96.875 80.4322 96.875 64.0625C96.8697 57.2766 94.5453 50.6963 90.2871 45.4127ZM61.9365 29.8807C62.0749 29.4655 62.3171 29.0925 62.6401 28.7972C62.9632 28.502 63.3563 28.2942 63.7823 28.1936C64.2082 28.0931 64.6528 28.1031 65.0738 28.2227C65.4948 28.3422 65.8782 28.5675 66.1877 28.877L68.1031 30.7924C68.3961 31.0854 68.7935 31.25 69.2079 31.25C69.6223 31.25 70.0197 31.0854 70.3127 30.7924L72.2281 28.8771C72.5376 28.5676 72.921 28.3423 73.342 28.2227C73.763 28.1031 74.2076 28.0931 74.6336 28.1936C75.0596 28.2942 75.4528 28.5019 75.7758 28.7972C76.0989 29.0925 76.3411 29.4654 76.4795 29.8807C76.5754 30.1653 76.5896 30.471 76.5205 30.7633C76.4515 31.0555 76.302 31.3226 76.0889 31.5342L69.2076 38.4154L62.3264 31.5342C62.1134 31.3225 61.964 31.0554 61.8951 30.7631C61.8262 30.4709 61.8406 30.1652 61.9365 29.8807ZM62.5 50C62.4994 48.1301 62.322 46.2645 61.9703 44.4279C65.6243 43.4569 69.4768 43.5249 73.0942 44.6242C76.7117 45.7235 79.9506 47.8106 82.4464 50.6505C84.9423 53.4904 86.5961 56.9705 87.2218 60.6992C87.8474 64.4278 87.4201 68.2571 85.9878 71.7562C84.5556 75.2552 82.1753 78.2851 79.1148 80.5049C76.0543 82.7248 72.435 84.0465 68.6642 84.3213C64.8934 84.5961 61.1207 83.8132 57.7707 82.0606C54.4206 80.3079 51.6262 77.6552 49.7018 74.4008C53.649 71.6715 56.8755 68.0257 59.1046 63.7758C61.3336 59.526 62.4987 54.7989 62.5 50ZM64.057 37.6838L67.0016 40.6283C65.0511 40.6421 63.1099 40.8988 61.2229 41.3926C60.9196 40.3908 60.5635 39.4058 60.1562 38.4416C61.4357 38.0918 62.7396 37.8385 64.057 37.6838ZM53.125 50C53.1232 52.7352 52.5696 55.442 51.4975 57.9584C50.4254 60.4747 48.8567 62.749 46.8853 64.6451C46.8799 64.4498 46.875 64.2566 46.875 64.0625C46.868 61.3253 47.4176 58.6152 48.4905 56.097C49.5633 53.5789 51.1371 51.3051 53.116 49.4141C53.1215 49.6094 53.125 49.8047 53.125 50ZM41.0105 68.591C40.7541 67.0951 40.6251 65.5802 40.625 64.0625C40.6217 59.8467 41.6234 55.6909 43.5471 51.9396C45.4707 48.1882 48.2608 44.9495 51.6861 42.4918C52.0974 43.5228 52.4228 44.5861 52.659 45.6707C49.8751 47.8587 47.626 50.652 46.0824 53.8387C44.5388 57.0253 43.7412 60.5217 43.75 64.0625C43.7513 65.0432 43.8133 66.0229 43.9357 66.9959C43.0062 67.6071 42.0278 68.1406 41.0105 68.591ZM37.5 64.0625C37.5004 65.9328 37.6763 67.799 38.0252 69.6365C34.3713 70.6083 30.5186 70.5411 26.9008 69.4425C23.283 68.3439 20.0435 66.2576 17.5468 63.4181C15.0502 60.5787 13.3955 57.0989 12.7688 53.3702C12.1422 49.6416 12.5685 45.812 13.9998 42.3125C15.4311 38.8129 17.8106 35.7822 20.8706 33.5613C23.9306 31.3405 27.5496 30.0176 31.3205 29.7416C35.0913 29.4655 38.8644 30.2473 42.2152 31.9988C45.5659 33.7504 48.3614 36.4022 50.2871 39.6561C46.3391 42.3851 43.1128 46.032 40.8855 50.2833C38.6581 54.5345 37.4964 59.2631 37.5 64.0625ZM26.9988 15.625L28.4457 19.9654L25.0697 15.625H26.9988ZM40.5553 15.625L37.1793 19.9654L38.6262 15.625H40.5553ZM35.332 15.625L32.8125 23.1836L30.293 15.625H35.332ZM31.25 12.5L32.8125 10.4166L34.375 12.5H31.25ZM40.625 12.5H38.2812L35.9375 9.375H38.2812L40.625 12.5ZM27.3438 9.375H29.6875L27.3438 12.5H25L27.3438 9.375ZM6.25 50C6.2504 43.8618 8.37611 37.913 12.2659 33.1647C16.1557 28.4163 21.5696 25.1612 27.5877 23.9525L29.7711 26.7596C23.8692 27.532 18.4823 30.5209 14.7036 35.1199C10.9249 39.7188 9.03758 45.5832 9.4246 51.5228C9.81161 57.4624 12.444 63.0323 16.7875 67.102C21.1311 71.1717 26.8603 73.4364 32.8125 73.4364C38.7647 73.4364 44.4939 71.1717 48.8375 67.102C53.181 63.0323 55.8134 57.4624 56.2004 51.5228C56.5874 45.5832 54.7001 39.7188 50.9214 35.1199C47.1427 30.5209 41.7558 27.532 35.8539 26.7596L38.0373 23.9525C44.0554 25.1612 49.4693 28.4163 53.3591 33.1647C57.2489 37.913 59.3746 43.8618 59.375 50C59.375 64.6467 47.4592 76.5625 32.8125 76.5625C18.1658 76.5625 6.25 64.6467 6.25 50ZM67.1875 90.625C62.5353 90.634 57.9628 89.417 53.9305 87.0966C49.8982 84.7762 46.5485 81.4343 44.2188 77.4074C45.1843 77.0041 46.1277 76.5499 47.0451 76.0467C49.0573 79.4282 51.8884 82.2487 55.2775 84.2482C58.6666 86.2476 62.5045 87.3615 66.4375 87.4873C70.3704 87.6131 74.2716 86.7466 77.7816 84.9678C81.2915 83.189 84.2971 80.5552 86.5211 77.3091C88.7452 74.063 90.1162 70.3092 90.5078 66.3938C90.8993 62.4784 90.2987 58.5275 88.7614 54.9053C87.2241 51.2831 84.7996 48.1062 81.7114 45.6676C78.6232 43.229 74.9708 41.6072 71.0908 40.9518L73.7305 38.3125C79.4547 39.7692 84.5303 43.0915 88.1557 47.7546C91.7811 52.4178 93.7495 58.1559 93.75 64.0625C93.75 78.7092 81.8342 90.625 67.1875 90.625Z" fill="#F8C25C"/>
<path d="M73.4374 79.9502C73.6526 79.9503 73.8654 79.9056 74.0624 79.8192C74.6511 79.5618 75.2249 79.2715 75.7811 78.9498C75.9641 78.85 76.1251 78.7146 76.2549 78.5516C76.3847 78.3886 76.4806 78.2013 76.537 78.0007C76.5933 77.8001 76.6089 77.5902 76.5829 77.3835C76.5569 77.1767 76.4899 76.9773 76.3857 76.7968C76.2814 76.6164 76.1422 76.4586 75.9761 76.3328C75.81 76.207 75.6204 76.1157 75.4185 76.0642C75.2166 76.0127 75.0064 76.0022 74.8003 76.0332C74.5943 76.0641 74.3965 76.136 74.2187 76.2446C73.7635 76.5076 73.294 76.7449 72.8124 76.9555C72.4833 77.099 72.2137 77.3515 72.0489 77.6705C71.884 77.9895 71.8341 78.3555 71.9075 78.707C71.9808 79.0584 72.173 79.3739 72.4516 79.6003C72.7302 79.8268 73.0784 79.9503 73.4374 79.9502Z" fill="#F8C25C"/>
<path d="M78.7501 74.6875C79.0814 74.9363 79.498 75.0434 79.9082 74.9851C80.3184 74.9268 80.6887 74.708 80.9376 74.3768C83.1788 71.4062 84.3861 67.7837 84.3751 64.0625C84.3751 63.6481 84.2105 63.2507 83.9175 62.9576C83.6244 62.6646 83.227 62.5 82.8126 62.5C82.3982 62.5 82.0008 62.6646 81.7077 62.9576C81.4147 63.2507 81.2501 63.6481 81.2501 64.0625C81.2596 67.1065 80.2724 70.0698 78.4394 72.5C78.1905 72.8313 78.0835 73.2479 78.1418 73.6581C78.2 74.0683 78.4189 74.4386 78.7501 74.6875Z" fill="#F8C25C"/>
</svg>
